<svg width="174" height="39" viewBox="0 0 174 39" fill="none" xmlns="http://www.w3.org/2000/svg">
<path d="M16.0429 26.8063C13.8665 25.998 11.628 25.8736 9.57596 26.4333C8.14578 26.8063 6.77778 27.5525 5.53414 28.4852L4.66358 29.2314L4.41486 29.4802L4.97449 29.9776C5.03667 29.9776 5.03668 30.0398 5.09886 30.102C5.22322 30.2263 5.34759 30.2885 5.53414 30.4129L5.90722 30.6616L6.28031 30.3507C6.34249 30.2885 6.46686 30.1642 6.59122 30.102C7.71049 29.1692 8.95412 28.5474 10.2599 28.2365C11.9389 27.8012 13.7421 27.8634 15.5454 28.5474C17.0378 29.1071 20.0847 29.7911 23.7534 28.2365L23.8778 28.1743L24.0643 27.9878C24.0643 27.9256 24.1265 27.9256 24.1887 27.8634C24.4996 27.4903 24.8105 27.1172 25.0592 26.682L26.3029 24.7543L24.313 25.8736C21.3905 27.4903 18.7167 27.8012 16.0429 26.8063Z" fill="#55B02E"/>
<path d="M7.52395 20.0907C9.20286 19.6554 11.0061 19.7176 12.8094 20.4016C14.7992 21.1478 19.8981 22.2049 25.6189 17.0438L26.5516 16.1111L26.6138 16.0489L26.8625 15.8002L26.7381 15.4893C26.6759 15.2405 26.5516 14.9296 26.4272 14.6187L26.1163 13.7482L25.4945 14.37C25.4323 14.4944 25.3079 14.5565 25.1836 14.6809C22.4476 17.4791 18.2192 20.3395 13.369 18.5984C11.1927 17.79 8.95413 17.6656 6.90213 18.2253C4.91231 18.7849 3.17122 19.842 1.55449 21.3344V21.2722L0.621761 22.2671C0.621761 22.3293 0.559591 22.3293 0.497409 22.3915L0.310852 22.578L0.373038 22.8267C0.435219 23.1376 0.559579 23.4485 0.621761 23.7594L0.994856 24.7544L1.61667 23.946C1.67886 23.8216 1.80322 23.7595 1.8654 23.6351C3.17122 22.4536 4.97449 20.7747 7.52395 20.0907Z" fill="#55B02E"/>
<path d="M1.49238 18.9714C2.92256 17.4791 4.53928 16.5463 6.28037 16.0489C7.95928 15.6136 9.76255 15.6758 11.5658 16.3598C17.1622 18.4118 22.0124 15.054 24.1266 13.2507L24.9349 12.4424L25.2458 12.1936L24.9971 11.8205C24.8106 11.634 24.6862 11.3853 24.4997 11.1365L24.1266 10.6391L23.6913 11.0743C23.6291 11.1365 23.5047 11.2609 23.4426 11.3231C20.8309 13.8103 16.7891 16.3598 12.1876 14.6187C10.0113 13.8104 7.77273 13.686 5.72074 14.2456C4.41492 14.6187 3.17128 15.2405 1.92764 16.0489L0.621818 17.106C0.497455 17.2304 0.435273 17.2925 0.310909 17.4169L0.186557 17.5413V17.7278C0.124375 18.1631 0.124367 18.5984 0.0621856 18.9714L0 20.526L1.0571 19.4067C1.18146 19.2823 1.30583 19.0958 1.49238 18.9714Z" fill="#55B02E"/>
<path d="M17.8462 31.0347L17.7218 31.4078L17.8462 31.0347C17.6597 30.9725 17.5353 30.9103 17.3488 30.8481C15.1724 30.0398 12.9338 29.9154 10.8818 30.4751C10.4466 30.5994 10.0113 30.7238 9.57603 30.9103L8.08365 31.5943L7.71057 31.7809L8.95421 32.2162C9.3273 32.3405 9.70038 32.4649 10.0735 32.5892L10.26 32.6514L10.4466 32.5892C10.6331 32.5271 10.8197 32.4027 11.0062 32.4027C11.1306 32.4027 11.2549 32.3405 11.3793 32.2783C12.8717 31.9052 14.4884 31.9052 16.2295 32.4649C16.416 32.5271 16.5404 32.5893 16.7269 32.6514L17.0378 32.7758L17.2244 32.7136C17.6597 32.5892 18.1571 32.4649 18.5302 32.2783L20.2713 31.6565L18.468 31.2212C18.2815 31.1591 18.0327 31.0969 17.8462 31.0347Z" fill="#55B02E"/>
<path d="M27.36 18.1631L26.4273 19.0958C26.3029 19.2202 26.1786 19.3445 26.0542 19.4689C23.5047 21.894 19.4007 24.5056 14.7993 22.7645C12.6229 21.9562 10.3844 21.8318 8.33237 22.3915C6.40473 22.9511 4.66363 23.946 3.10908 25.4384L2.30073 26.3089L2.052 26.6198L2.30073 26.9929C2.48727 27.2416 2.61164 27.4282 2.73601 27.6769L3.10908 28.2365L3.54436 27.6769C3.60654 27.6147 3.7309 27.4904 3.79309 27.4282C5.28545 25.8114 6.90218 24.8165 8.76763 24.3191C10.4465 23.8838 12.2498 23.946 14.0531 24.63C15.6076 25.1896 17.2244 25.3762 18.8411 25.1896C21.7015 24.8787 24.5618 23.262 26.676 21.4587C26.8004 21.3344 26.9247 21.2722 27.0491 21.1478L27.2356 20.9613V20.7747C27.2356 20.4016 27.2978 19.9664 27.2978 19.5933L27.36 18.1631Z" fill="#55B02E"/>
<path d="M3.73088 12.4424L3.54434 12.0693L3.73088 12.4424C4.10397 12.2558 4.53926 12.1315 4.91235 12.0071C6.59126 11.5718 8.39453 11.634 10.1978 12.318C11.3793 12.7533 12.5607 12.9398 13.8665 12.9398C16.4782 12.9398 19.0898 12.0071 21.5149 10.2038L22.4476 9.45764L22.7585 9.20892L22.1989 8.77364C22.0123 8.58709 21.7636 8.40055 21.5149 8.27619L21.1418 8.02747L20.8309 8.27619C20.7065 8.33837 20.6443 8.46273 20.52 8.52491C17.2243 11.0122 13.9287 11.6962 10.8196 10.5147C8.58108 9.70638 6.34252 9.51983 4.10397 10.2038C3.91743 10.266 3.73088 10.3282 3.48216 10.3904L3.3578 10.4526L3.17125 10.6391C3.17125 10.7013 3.10908 10.7013 3.04689 10.7635C2.79817 11.1366 2.48725 11.4475 2.23852 11.8206L1.05707 13.6238L2.98471 12.6289C3.29562 12.6289 3.54433 12.5046 3.73088 12.4424Z" fill="#55B02E"/>
<path d="M8.82979 8.21399L9.01633 8.27617C9.82469 8.58708 11.0683 8.89799 12.6229 8.89799C14.2396 8.89799 15.7942 8.5249 17.3487 7.90308L19.2763 6.97035L17.9705 6.53509C17.5974 6.41073 17.2243 6.28636 16.7891 6.22418H16.6025L16.416 6.28635C16.2294 6.34853 16.0429 6.47291 15.8563 6.53509C13.9909 7.21909 12.1254 7.34345 10.3222 6.846C10.1356 6.78382 9.94906 6.72163 9.76252 6.65944L9.57598 6.59726L9.38942 6.65944C9.01633 6.78381 8.64325 6.90818 8.27016 7.09472L6.83997 7.71654L8.33234 8.1518C8.45671 8.08962 8.64325 8.15181 8.82979 8.21399Z" fill="#55B02E"/>
<path d="M40.4759 30V18.492H37.7599V15.86H41.4559L40.4759 16.756V14.6C40.4759 12.8453 40.9146 11.52 41.7919 10.624C42.6879 9.728 43.9853 9.28 45.6839 9.28C46.0946 9.28 46.5239 9.308 46.9719 9.364C47.4386 9.42 47.8399 9.52267 48.1759 9.672V12.416C47.9333 12.3227 47.6439 12.248 47.3079 12.192C46.9719 12.136 46.6453 12.108 46.3279 12.108C45.5999 12.108 45.0213 12.3227 44.5919 12.752C44.1626 13.1627 43.9479 13.8347 43.9479 14.768V16.476L43.4439 15.86H53.2719V30H49.7719V18.492H43.9759V30H40.4759ZM49.5759 13.2V9.784H53.4679V13.2H49.5759ZM57.0786 30V19.388C57.0786 18.8093 57.06 18.2213 57.0226 17.624C56.9853 17.0267 56.9293 16.4387 56.8546 15.86H60.2426L60.5226 18.66H60.1866C60.6346 17.6707 61.2973 16.9147 62.1746 16.392C63.052 15.8507 64.0693 15.58 65.2266 15.58C66.888 15.58 68.1386 16.0467 68.9786 16.98C69.8186 17.9133 70.2386 19.3693 70.2386 21.348V30H66.7386V21.516C66.7386 20.3773 66.5146 19.5653 66.0666 19.08C65.6373 18.576 64.984 18.324 64.1066 18.324C63.024 18.324 62.1653 18.66 61.5306 19.332C60.896 20.004 60.5786 20.9 60.5786 22.02V30H57.0786ZM79.4097 30.28C78.1777 30.28 77.095 29.9907 76.1617 29.412C75.2284 28.8147 74.5004 27.9653 73.9777 26.864C73.455 25.7627 73.1937 24.4467 73.1937 22.916C73.1937 21.3853 73.455 20.0787 73.9777 18.996C74.5004 17.8947 75.2284 17.0547 76.1617 16.476C77.095 15.8787 78.1777 15.58 79.4097 15.58C80.6044 15.58 81.6497 15.8787 82.5457 16.476C83.4604 17.0547 84.067 17.8387 84.3657 18.828H84.0577L84.3657 15.86H87.7257C87.6697 16.4387 87.6137 17.0267 87.5577 17.624C87.5204 18.2213 87.5017 18.8093 87.5017 19.388V30H84.0297L84.0017 27.088H84.3377C84.039 28.0587 83.4324 28.8333 82.5177 29.412C81.603 29.9907 80.567 30.28 79.4097 30.28ZM80.3897 27.592C81.491 27.592 82.3777 27.2093 83.0497 26.444C83.7217 25.66 84.0577 24.484 84.0577 22.916C84.0577 21.348 83.7217 20.1813 83.0497 19.416C82.3777 18.6507 81.491 18.268 80.3897 18.268C79.2884 18.268 78.4017 18.6507 77.7297 19.416C77.0577 20.1813 76.7217 21.348 76.7217 22.916C76.7217 24.484 77.0484 25.66 77.7017 26.444C78.3737 27.2093 79.2697 27.592 80.3897 27.592ZM91.313 30V19.388C91.313 18.8093 91.2943 18.2213 91.257 17.624C91.2197 17.0267 91.1637 16.4387 91.089 15.86H94.477L94.757 18.66H94.421C94.869 17.6707 95.5317 16.9147 96.409 16.392C97.2863 15.8507 98.3037 15.58 99.461 15.58C101.122 15.58 102.373 16.0467 103.213 16.98C104.053 17.9133 104.473 19.3693 104.473 21.348V30H100.973V21.516C100.973 20.3773 100.749 19.5653 100.301 19.08C99.8717 18.576 99.2183 18.324 98.341 18.324C97.2583 18.324 96.3997 18.66 95.765 19.332C95.1303 20.004 94.813 20.9 94.813 22.02V30H91.313ZM114.68 30.28C113.224 30.28 111.945 29.9813 110.844 29.384C109.761 28.7867 108.921 27.9373 108.324 26.836C107.727 25.716 107.428 24.3907 107.428 22.86C107.428 21.3293 107.727 20.0227 108.324 18.94C108.94 17.8573 109.789 17.0267 110.872 16.448C111.955 15.8693 113.224 15.58 114.68 15.58C115.613 15.58 116.519 15.7293 117.396 16.028C118.292 16.308 119.02 16.7187 119.58 17.26L118.516 19.696C118.012 19.2293 117.443 18.884 116.808 18.66C116.192 18.4173 115.585 18.296 114.988 18.296C113.737 18.296 112.757 18.688 112.048 19.472C111.357 20.256 111.012 21.3947 111.012 22.888C111.012 24.3813 111.357 25.5293 112.048 26.332C112.757 27.1347 113.737 27.536 114.988 27.536C115.567 27.536 116.164 27.424 116.78 27.2C117.415 26.976 117.993 26.6307 118.516 26.164L119.58 28.572C119.001 29.1133 118.264 29.5333 117.368 29.832C116.491 30.1307 115.595 30.28 114.68 30.28ZM128.852 30.28C126.481 30.28 124.624 29.6267 123.28 28.32C121.936 27.0133 121.264 25.2213 121.264 22.944C121.264 21.4693 121.553 20.1813 122.132 19.08C122.711 17.9787 123.513 17.12 124.54 16.504C125.585 15.888 126.799 15.58 128.18 15.58C129.543 15.58 130.681 15.8693 131.596 16.448C132.511 17.0267 133.201 17.8387 133.668 18.884C134.153 19.9293 134.396 21.152 134.396 22.552V23.476H124.092V21.628H131.904L131.428 22.02C131.428 20.7133 131.148 19.7147 130.588 19.024C130.047 18.3333 129.253 17.988 128.208 17.988C127.051 17.988 126.155 18.3987 125.52 19.22C124.904 20.0413 124.596 21.1893 124.596 22.664V23.028C124.596 24.5587 124.969 25.7067 125.716 26.472C126.481 27.2187 127.555 27.592 128.936 27.592C129.739 27.592 130.485 27.4893 131.176 27.284C131.885 27.06 132.557 26.7053 133.192 26.22L134.228 28.572C133.556 29.1133 132.753 29.5333 131.82 29.832C130.887 30.1307 129.897 30.28 128.852 30.28ZM136.968 30V26.108H140.888V30H136.968ZM149.683 30.28C148.451 30.28 147.368 29.9907 146.435 29.412C145.502 28.8147 144.774 27.9653 144.251 26.864C143.728 25.7627 143.467 24.4467 143.467 22.916C143.467 21.3853 143.728 20.0787 144.251 18.996C144.774 17.8947 145.502 17.0547 146.435 16.476C147.368 15.8787 148.451 15.58 149.683 15.58C150.878 15.58 151.923 15.8787 152.819 16.476C153.734 17.0547 154.34 17.8387 154.639 18.828H154.331L154.639 15.86H157.999C157.943 16.4387 157.887 17.0267 157.831 17.624C157.794 18.2213 157.775 18.8093 157.775 19.388V30H154.303L154.275 27.088H154.611C154.312 28.0587 153.706 28.8333 152.791 29.412C151.876 29.9907 150.84 30.28 149.683 30.28ZM150.663 27.592C151.764 27.592 152.651 27.2093 153.323 26.444C153.995 25.66 154.331 24.484 154.331 22.916C154.331 21.348 153.995 20.1813 153.323 19.416C152.651 18.6507 151.764 18.268 150.663 18.268C149.562 18.268 148.675 18.6507 148.003 19.416C147.331 20.1813 146.995 21.348 146.995 22.916C146.995 24.484 147.322 25.66 147.975 26.444C148.647 27.2093 149.543 27.592 150.663 27.592ZM161.586 30V15.86H165.086V30H161.586ZM161.39 13.2V9.784H165.282V13.2H161.39Z" fill="black"/>
</svg>
